<svg width="291" height="66" viewBox="0 0 291 66" fill="none" xmlns="http://www.w3.org/2000/svg">
<path d="M11.9205 51H0.498386L26.272 0.58517H40.0081L49.0177 51H37.5956L31.4661 12.1057H31.0722L11.9205 51ZM14.5299 31.1836H41.5097L40.0819 39.504H13.1021L14.5299 31.1836ZM69.068 29.1404L65.4247 51H54.9626L61.2645 13.1889H71.2342L70.1511 19.86H70.5696C71.7676 17.6445 73.4579 15.8967 75.6406 14.6166C77.8397 13.3366 80.3424 12.6965 83.1487 12.6965C85.7744 12.6965 87.9653 13.2709 89.7213 14.4197C91.4937 15.5685 92.7409 17.2014 93.463 19.3184C94.2015 21.4354 94.3246 23.971 93.8323 26.9249L89.7952 51H79.3085L83.0256 28.7958C83.403 26.4819 83.1076 24.6766 82.1394 23.3802C81.1876 22.0673 79.6531 21.4108 77.5361 21.4108C76.1247 21.4108 74.8283 21.7144 73.6467 22.3216C72.4651 22.9289 71.4722 23.8151 70.668 24.9802C69.8803 26.129 69.347 27.5157 69.068 29.1404ZM100.817 65.1792C99.4715 65.1792 98.2407 65.0725 97.1248 64.8592C96.0088 64.6622 95.0898 64.4079 94.3677 64.096L98.0602 56.268C99.2254 56.6454 100.284 56.8423 101.236 56.8588C102.204 56.8752 103.09 56.629 103.894 56.1203C104.698 55.6115 105.437 54.7745 106.11 53.6094L107.045 52.0093L99.9557 13.1889H110.59L113.79 41.0057H114.184L126.714 13.1889H138.21L116.572 55.0864C115.505 57.1377 114.242 58.9183 112.781 60.4282C111.337 61.938 109.622 63.1032 107.636 63.9237C105.667 64.7607 103.394 65.1792 100.817 65.1792Z" fill="#2E384C"/>
<path d="M151.158 51.6154C148.27 51.6154 145.784 50.8769 143.699 49.3999C141.632 47.9065 140.155 45.7156 139.268 42.8273C138.399 39.9225 138.317 36.3613 139.022 32.1437C139.744 27.8111 141.041 24.2089 142.912 21.337C144.783 18.4486 146.998 16.2906 149.558 14.8628C152.118 13.4186 154.785 12.6965 157.559 12.6965C159.659 12.6965 161.358 13.0576 162.654 13.7797C163.967 14.4854 164.976 15.3716 165.682 16.4383C166.388 17.4886 166.88 18.5225 167.159 19.54H167.479L170.655 0.58517H181.117L172.747 51H162.408L163.417 44.9443H162.974C162.318 45.9946 161.448 47.0367 160.365 48.0706C159.298 49.0881 158.002 49.9333 156.475 50.6061C154.966 51.279 153.193 51.6154 151.158 51.6154ZM155.786 43.2704C157.46 43.2704 158.97 42.8109 160.316 41.8919C161.661 40.9564 162.794 39.6517 163.713 37.9778C164.632 36.3039 165.272 34.3428 165.633 32.0944C166.01 29.8461 166.018 27.8932 165.657 26.2357C165.296 24.5782 164.591 23.2981 163.54 22.3955C162.506 21.4929 161.136 21.0416 159.429 21.0416C157.706 21.0416 156.18 21.5093 154.851 22.4447C153.538 23.3802 152.446 24.6766 151.577 26.3342C150.723 27.9917 150.116 29.9118 149.755 32.0944C149.394 34.2935 149.369 36.2382 149.681 37.9286C149.993 39.6025 150.658 40.9154 151.675 41.8672C152.693 42.8027 154.063 43.2704 155.786 43.2704ZM198.478 51.7385C194.621 51.7385 191.429 50.9179 188.902 49.2768C186.374 47.6193 184.594 45.3218 183.56 42.3842C182.542 39.4302 182.354 35.9921 182.994 32.0698C183.617 28.1968 184.914 24.8079 186.883 21.9032C188.852 18.9984 191.355 16.7419 194.391 15.1336C197.427 13.5089 200.849 12.6965 204.656 12.6965C208.496 12.6965 211.68 13.5253 214.208 15.1828C216.735 16.8239 218.515 19.1215 219.549 22.0755C220.583 25.0295 220.78 28.4676 220.14 32.3898C219.5 36.2464 218.187 39.6271 216.201 42.5319C214.216 45.4366 211.713 47.7014 208.693 49.3261C205.674 50.9344 202.268 51.7385 198.478 51.7385ZM199.511 43.615C201.284 43.615 202.851 43.1145 204.213 42.1134C205.592 41.0959 206.732 39.7174 207.635 37.9778C208.554 36.2218 209.194 34.2361 209.555 32.0206C209.916 29.8379 209.941 27.9014 209.629 26.2111C209.317 24.5043 208.661 23.1586 207.66 22.1739C206.675 21.1893 205.321 20.6969 203.598 20.6969C201.825 20.6969 200.25 21.2057 198.871 22.2232C197.493 23.2243 196.352 24.6028 195.45 26.3588C194.547 28.1148 193.915 30.1087 193.554 32.3406C193.21 34.5069 193.185 36.4434 193.48 38.1501C193.776 39.8405 194.424 41.178 195.425 42.1626C196.426 43.1309 197.788 43.615 199.511 43.615ZM223.857 51L230.159 13.1889H240.326L239.218 19.7861H239.612C240.695 17.4393 242.147 15.667 243.969 14.4689C245.807 13.2545 247.785 12.6473 249.902 12.6473C250.427 12.6473 250.977 12.6801 251.551 12.7458C252.142 12.795 252.667 12.8771 253.126 12.9919L251.551 22.3216C251.091 22.1575 250.435 22.0262 249.582 21.9278C248.745 21.8129 247.949 21.7555 247.194 21.7555C245.668 21.7555 244.248 22.0919 242.935 22.7647C241.622 23.4212 240.514 24.3402 239.612 25.5218C238.726 26.7034 238.143 28.0655 237.864 29.6082L234.344 51H223.857ZM267.595 51.7385C263.738 51.7385 260.546 50.9179 258.019 49.2768C255.492 47.6193 253.711 45.3218 252.677 42.3842C251.66 39.4302 251.471 35.9921 252.111 32.0698C252.735 28.1968 254.031 24.8079 256 21.9032C257.97 18.9984 260.472 16.7419 263.508 15.1336C266.545 13.5089 269.966 12.6965 273.774 12.6965C277.614 12.6965 280.798 13.5253 283.325 15.1828C285.852 16.8239 287.633 19.1215 288.667 22.0755C289.701 25.0295 289.897 28.4676 289.257 32.3898C288.617 36.2464 287.305 39.6271 285.319 42.5319C283.333 45.4366 280.83 47.7014 277.811 49.3261C274.791 50.9344 271.386 51.7385 267.595 51.7385ZM268.629 43.615C270.401 43.615 271.968 43.1145 273.33 42.1134C274.709 41.0959 275.85 39.7174 276.752 37.9778C277.671 36.2218 278.311 34.2361 278.672 32.0206C279.033 29.8379 279.058 27.9014 278.746 26.2111C278.434 24.5043 277.778 23.1586 276.777 22.1739C275.792 21.1893 274.438 20.6969 272.715 20.6969C270.943 20.6969 269.367 21.2057 267.989 22.2232C266.61 23.2243 265.47 24.6028 264.567 26.3588C263.664 28.1148 263.033 30.1087 262.671 32.3406C262.327 34.5069 262.302 36.4434 262.598 38.1501C262.893 39.8405 263.541 41.178 264.542 42.1626C265.543 43.1309 266.906 43.615 268.629 43.615Z" fill="#414AA3"/>
</svg>
