<svg width="263" height="45" viewBox="0 0 263 45" fill="none" xmlns="http://www.w3.org/2000/svg">
<path d="M8.15029 45H1.49553C0.663689 45 0.386408 44.5148 0.663689 43.5443L11.6163 1.88272C11.9398 0.912232 12.633 0.42699 13.6959 0.42699H22.9155C24.0709 0.42699 24.7641 0.912232 24.9951 1.88272L35.9478 43.5443C36.2251 44.5148 35.9478 45 35.1159 45H28.4612C27.9528 45 27.6062 44.9076 27.4214 44.7227C27.2365 44.4917 27.0979 44.0988 27.0054 43.5443L25.0645 35.919H11.547L9.60602 43.5443C9.51359 44.0988 9.35185 44.4917 9.12078 44.7227C8.93592 44.9076 8.61243 45 8.15029 45ZM18.2017 8.81476L13.2107 28.8483H23.4701L18.479 8.81476H18.2017ZM49.3017 45H43.5481C42.5776 45 42.0924 44.5148 42.0924 43.5443V1.88272C42.0924 0.912232 42.5776 0.42699 43.5481 0.42699H48.7471C49.7176 0.42699 50.3646 0.750485 50.6881 1.39747L64.6908 27.6699H64.9681V1.88272C64.9681 0.912232 65.4533 0.42699 66.4238 0.42699H72.1774C73.1479 0.42699 73.6331 0.912232 73.6331 1.88272V43.5443C73.6331 44.5148 73.1479 45 72.1774 45H67.117C66.1003 45 65.3609 44.5379 64.8988 43.6136L51.0347 17.8264H50.7574V43.5443C50.7574 44.5148 50.2722 45 49.3017 45ZM99.0017 45H93.1095C92.139 45 91.6537 44.5148 91.6537 43.5443V28.7097L78.9681 1.95203C78.7833 1.53611 78.7833 1.18951 78.9681 0.91223C79.1992 0.588736 79.5227 0.42699 79.9386 0.42699H87.2866C88.026 0.42699 88.5805 0.912232 88.9502 1.88272L95.8823 18.7276H96.3675L103.161 1.88272C103.484 0.912232 104.039 0.42699 104.825 0.42699H112.173C112.635 0.42699 112.958 0.56563 113.143 0.842911C113.374 1.12019 113.374 1.4899 113.143 1.95203L100.457 28.7097V43.5443C100.457 44.5148 99.9722 45 99.0017 45Z" fill="#2E384C"/>
<path d="M128.019 37.3748H135.575C137.054 37.3748 138.094 37.0744 138.695 36.4736C139.342 35.8266 139.665 34.7637 139.665 33.2849V12.1421C139.665 10.6633 139.342 9.62349 138.695 9.02271C138.094 8.37572 137.054 8.05223 135.575 8.05223H128.019C127.511 8.05223 127.257 8.3064 127.257 8.81476V36.6122C127.257 37.1206 127.511 37.3748 128.019 37.3748ZM118.453 43.5443V1.88272C118.453 0.912232 118.938 0.42699 119.909 0.42699H137.031C140.636 0.42699 143.432 1.42058 145.419 3.40777C147.452 5.34874 148.469 8.12155 148.469 11.7262V33.7008C148.469 37.3054 147.452 40.1014 145.419 42.0885C143.432 44.0295 140.636 45 137.031 45H119.909C118.938 45 118.453 44.5148 118.453 43.5443ZM168.9 37.3748H173.822C175.301 37.3748 176.34 37.0744 176.941 36.4736C177.588 35.8266 177.912 34.7637 177.912 33.2849V12.1421C177.912 10.6633 177.588 9.62349 176.941 9.02271C176.34 8.37572 175.301 8.05223 173.822 8.05223H168.9C167.421 8.05223 166.381 8.37572 165.781 9.02271C165.18 9.62349 164.879 10.6633 164.879 12.1421V33.2849C164.879 34.7637 165.18 35.8266 165.781 36.4736C166.381 37.0744 167.421 37.3748 168.9 37.3748ZM175.277 45H167.514C163.863 45 161.044 44.0295 159.056 42.0885C157.069 40.1476 156.076 37.3517 156.076 33.7008V11.7262C156.076 8.07534 157.069 5.27942 159.056 3.33845C161.044 1.39747 163.863 0.42699 167.514 0.42699H175.277C178.928 0.42699 181.747 1.39747 183.735 3.33845C185.722 5.27942 186.715 8.07534 186.715 11.7262V33.7008C186.715 37.3517 185.722 40.1476 183.735 42.0885C181.747 44.0295 178.928 45 175.277 45ZM202.365 45H196.473C195.502 45 195.017 44.5148 195.017 43.5443V1.88272C195.017 0.912232 195.502 0.42699 196.473 0.42699H212.971C216.576 0.42699 219.395 1.42058 221.428 3.40777C223.461 5.39495 224.478 8.19087 224.478 11.7955V17.2025C224.478 22.4247 222.422 25.8907 218.309 27.6006V27.8779L225.726 43.3363C226.142 44.4454 225.749 45 224.547 45H218.932C218.101 45 217.5 44.9076 217.13 44.7227C216.76 44.5379 216.46 44.145 216.229 43.5443L209.297 28.5711H204.652C204.098 28.5711 203.821 28.8252 203.821 29.3336V43.5443C203.821 44.5148 203.335 45 202.365 45ZM204.583 21.5004H211.377C212.855 21.5004 213.941 21.2 214.635 20.5992C215.328 19.9522 215.674 18.9355 215.674 17.5491V12.1421C215.674 10.7095 215.328 9.66971 214.635 9.02271C213.941 8.37572 212.855 8.05223 211.377 8.05223H204.583C204.075 8.05223 203.821 8.3064 203.821 8.81476V20.7379C203.821 21.2462 204.075 21.5004 204.583 21.5004ZM245.058 37.3748H249.979C251.458 37.3748 252.498 37.0744 253.099 36.4736C253.746 35.8266 254.069 34.7637 254.069 33.2849V12.1421C254.069 10.6633 253.746 9.62349 253.099 9.02271C252.498 8.37572 251.458 8.05223 249.979 8.05223H245.058C243.579 8.05223 242.539 8.37572 241.938 9.02271C241.337 9.62349 241.037 10.6633 241.037 12.1421V33.2849C241.037 34.7637 241.337 35.8266 241.938 36.4736C242.539 37.0744 243.579 37.3748 245.058 37.3748ZM251.435 45H243.671C240.02 45 237.201 44.0295 235.214 42.0885C233.227 40.1476 232.233 37.3517 232.233 33.7008V11.7262C232.233 8.07534 233.227 5.27942 235.214 3.33845C237.201 1.39747 240.02 0.42699 243.671 0.42699H251.435C255.086 0.42699 257.905 1.39747 259.892 3.33845C261.879 5.27942 262.873 8.07534 262.873 11.7262V33.7008C262.873 37.3517 261.879 40.1476 259.892 42.0885C257.905 44.0295 255.086 45 251.435 45Z" fill="#2DEECC"/>
</svg>
